<?xml version="1.0" encoding="utf-8"?>
<!-- Generator: Adobe Illustrator 15.1.0, SVG Export Plug-In . SVG Version: 6.00 Build 0)  -->
<!DOCTYPE svg PUBLIC "-//W3C//DTD SVG 1.1//EN" "http://www.w3.org/Graphics/SVG/1.1/DTD/svg11.dtd">
<svg version="1.1" id="Ebene_1" xmlns="http://www.w3.org/2000/svg" xmlns:xlink="http://www.w3.org/1999/xlink" x="0px" y="0px"
	 width="585px" height="300px" viewBox="0 0 585 300" enable-background="new 0 0 585 300" xml:space="preserve">
<filter  id="AI_Schatten_1" filterUnits="objectBoundingBox">
	<feGaussianBlur  result="blur" in="SourceAlpha" stdDeviation="1"></feGaussianBlur>
	<feOffset  dx="1" result="offsetBlurredAlpha" in="blur" dy="1"></feOffset>
	<feMerge>
		<feMergeNode  in="offsetBlurredAlpha"></feMergeNode>
		<feMergeNode  in="SourceGraphic"></feMergeNode>
	</feMerge>
</filter>
<g filter="url(#AI_Schatten_1)">
	<path fill="#FFFFFF" d="M5.1,41.3c-0.9-0.9-1.4-1.9-1.4-3.1c0-1.2,0.5-2.2,1.4-3.1L36.4,3.5c0.9-0.9,2-1.4,3.2-1.4
		c1.2,0,2.3,0.4,3.2,1.4l4.7,4.7c0.9,0.9,1.4,2,1.4,3.2c0,1.2-0.5,2.3-1.4,3.1L23.7,38.4l23.7,23.4c0.9,0.9,1.4,1.9,1.4,3.1
		c0,1.2-0.5,2.2-1.4,3.1l-4.7,4.8c-0.9,0.9-2,1.4-3.2,1.4c-1.2,0-2.3-0.4-3.2-1.4L5.1,41.3L5.1,41.3z"/>
</g>
<g id="Pfeil_weiß_rechts" filter="url(#AI_Schatten_1)">
	<path fill="#FFFFFF" d="M341.5,35.3c0.9,0.9,1.4,2,1.4,3.2c0,1.2-0.5,2.3-1.4,3.2l-31.4,31.4c-0.9,0.9-2,1.4-3.2,1.4
		c-1.2,0-2.2-0.4-3.2-1.4l-4.7-4.7c-0.9-0.9-1.4-2-1.4-3.2c0-1.2,0.4-2.2,1.4-3.2l23.8-23.7l-23.8-23.5c-0.9-0.9-1.4-1.9-1.4-3.1
		c0-1.2,0.4-2.2,1.4-3.1l4.7-4.8c0.9-0.9,2-1.4,3.2-1.4c1.2,0,2.3,0.4,3.1,1.4L341.5,35.3L341.5,35.3z"/>
</g>
<path id="Close_Black" fill="#010202" d="M552.8,48.7c0.3,0.3,0.4,0.5,0.4,0.9c0,0.3-0.1,0.6-0.4,0.9l-1.3,1.3
	c-0.3,0.3-0.6,0.4-0.9,0.4c-0.3,0-0.6-0.1-0.9-0.4l-6.6-6.6l-6.6,6.6c-0.3,0.3-0.5,0.4-0.9,0.4c-0.3,0-0.6-0.1-0.9-0.4l-1.3-1.3
	c-0.3-0.3-0.4-0.5-0.4-0.9c0-0.3,0.1-0.6,0.4-0.9L540,42l-6.7-6.6c-0.3-0.3-0.4-0.5-0.4-0.9s0.1-0.6,0.4-0.9l1.3-1.3
	c0.3-0.3,0.5-0.4,0.9-0.4c0.3,0,0.6,0.1,0.9,0.4l6.6,6.6l6.6-6.6c0.3-0.3,0.5-0.4,0.9-0.4c0.3,0,0.6,0.1,0.9,0.4l1.3,1.3
	c0.3,0.3,0.4,0.5,0.4,0.9c0,0.3-0.1,0.6-0.4,0.9l-6.7,6.7L552.8,48.7L552.8,48.7z"/>
<path id="Info_black" fill="#010202" d="M543.2,59c1.4,0,2.7,0.3,3.9,0.8c1.2,0.5,2.3,1.2,3.2,2.1c0.9,0.9,1.6,2,2.1,3.2
	c0.5,1.2,0.8,2.5,0.8,3.9c0,1.4-0.3,2.7-0.8,3.9c-0.5,1.2-1.2,2.3-2.1,3.2c-0.9,0.9-2,1.6-3.2,2.1c-1.2,0.5-2.5,0.8-3.9,0.8
	c-1.4,0-2.7-0.3-3.9-0.8c-1.2-0.5-2.3-1.2-3.2-2.1c-0.9-0.9-1.6-2-2.1-3.2c-0.5-1.2-0.8-2.5-0.8-3.9c0-1.4,0.3-2.7,0.8-3.9
	c0.5-1.2,1.2-2.3,2.1-3.2c0.9-0.9,2-1.6,3.2-2.1C540.5,59.3,541.8,59,543.2,59z M546.2,73.8c0-0.2-0.1-0.4-0.4-0.4h-1v-7.2
	c0-0.1,0-0.2-0.1-0.3c-0.1-0.1-0.2-0.1-0.3-0.1h-3.8c-0.1,0-0.2,0-0.3,0.1s-0.1,0.2-0.1,0.3v1.7c0,0.2,0.1,0.4,0.4,0.4h1.1v5.1h-1
	c-0.1,0-0.2,0-0.3,0.1c-0.1,0.1-0.1,0.2-0.1,0.3v1.7c0,0.1,0,0.2,0.1,0.3c0.1,0.1,0.2,0.1,0.3,0.1h5c0.1,0,0.2,0,0.3-0.1
	c0.1-0.1,0.1-0.2,0.1-0.3V73.8z M541.7,64.2c0,0.1,0,0.2,0.1,0.3c0.1,0.1,0.2,0.1,0.3,0.1h2.4c0.1,0,0.2,0,0.3-0.1
	c0.1-0.1,0.1-0.2,0.1-0.3v-2.1c0-0.2-0.1-0.4-0.4-0.4h-2.4c-0.1,0-0.2,0-0.3,0.1c-0.1,0.1-0.1,0.2-0.1,0.3V64.2z"/>
<path id="Fullscreen_black" fill="#010202" d="M551.4,13.2c0.3-0.3,0.6-0.4,0.8-0.3c0.2,0.1,0.3,0.4,0.3,0.8v6.2
	c0,0.3-0.1,0.5-0.3,0.7c-0.2,0.2-0.4,0.3-0.7,0.3h-6.2c-0.4,0-0.7-0.1-0.8-0.3c-0.1-0.2,0-0.5,0.3-0.8l2.2-2.2l-4.4-4.4l-4.4,4.4
	l2.1,2.1c0.3,0.3,0.4,0.6,0.3,0.8c-0.1,0.2-0.4,0.3-0.8,0.3h-6.2c-0.3,0-0.5-0.1-0.7-0.3c-0.2-0.2-0.3-0.4-0.3-0.7v-6.2
	c0-0.4,0.1-0.7,0.3-0.8c0.2-0.1,0.5,0,0.8,0.3l2.1,2.1l4.4-4.4l-4.4-4.4l-2.1,2.1c-0.3,0.3-0.6,0.4-0.8,0.3
	c-0.2-0.1-0.3-0.3-0.3-0.8V2c0-0.3,0.1-0.5,0.3-0.7c0.2-0.2,0.5-0.3,0.7-0.3h6.2c0.4,0,0.7,0.1,0.8,0.3c0.1,0.2,0,0.5-0.3,0.8
	l-2.1,2.1l4.4,4.4l4.3-4.3l-2.1-2.1c-0.3-0.3-0.4-0.6-0.3-0.8c0.1-0.2,0.4-0.3,0.8-0.3h6.2c0.3,0,0.5,0.1,0.7,0.3
	c0.2,0.2,0.3,0.5,0.3,0.7v6.2c0,0.4-0.1,0.7-0.3,0.8c-0.2,0.1-0.5,0-0.8-0.3l-2.1-2.1l-4.3,4.3l4.4,4.4L551.4,13.2L551.4,13.2z"/>
<path id="Close_grey" fill="#646463" d="M582.9,48.7c0.3,0.3,0.4,0.5,0.4,0.9c0,0.3-0.1,0.6-0.4,0.9l-1.3,1.3
	c-0.3,0.3-0.6,0.4-0.9,0.4c-0.3,0-0.6-0.1-0.9-0.4l-6.6-6.6l-6.7,6.6c-0.3,0.3-0.5,0.4-0.9,0.4c-0.3,0-0.6-0.1-0.9-0.4l-1.3-1.3
	c-0.3-0.3-0.4-0.5-0.4-0.9c0-0.3,0.1-0.6,0.4-0.9l6.7-6.7l-6.7-6.6c-0.3-0.3-0.4-0.5-0.4-0.9s0.1-0.6,0.4-0.9l1.3-1.3
	c0.3-0.3,0.5-0.4,0.9-0.4c0.3,0,0.6,0.1,0.9,0.4l6.6,6.6l6.6-6.6c0.3-0.3,0.5-0.4,0.9-0.4c0.3,0,0.6,0.1,0.9,0.4l1.3,1.3
	c0.3,0.3,0.4,0.5,0.4,0.9c0,0.3-0.1,0.6-0.4,0.9l-6.7,6.7L582.9,48.7L582.9,48.7z"/>
<path id="Info_grey" fill="#646463" d="M573.2,59c1.4,0,2.7,0.3,3.9,0.8c1.2,0.5,2.3,1.2,3.2,2.1c0.9,0.9,1.6,2,2.1,3.2
	c0.5,1.2,0.8,2.5,0.8,3.9c0,1.4-0.3,2.7-0.8,3.9c-0.5,1.2-1.2,2.3-2.1,3.2c-0.9,0.9-2,1.6-3.2,2.1c-1.2,0.5-2.5,0.8-3.9,0.8
	c-1.4,0-2.7-0.3-3.9-0.8c-1.2-0.5-2.3-1.2-3.2-2.1c-0.9-0.9-1.6-2-2.1-3.2c-0.5-1.2-0.8-2.5-0.8-3.9c0-1.4,0.3-2.7,0.8-3.9
	c0.5-1.2,1.2-2.3,2.1-3.2c0.9-0.9,2-1.6,3.2-2.1C570.5,59.3,571.8,59,573.2,59z M576.2,73.8c0-0.2-0.1-0.4-0.4-0.4h-1v-7.2
	c0-0.1,0-0.2-0.1-0.3c-0.1-0.1-0.2-0.1-0.3-0.1h-3.8c-0.1,0-0.2,0-0.3,0.1c-0.1,0.1-0.1,0.2-0.1,0.3v1.7c0,0.2,0.1,0.4,0.4,0.4h1.1
	v5.1h-1c-0.1,0-0.2,0-0.3,0.1c-0.1,0.1-0.1,0.2-0.1,0.3v1.7c0,0.1,0,0.2,0.1,0.3c0.1,0.1,0.2,0.1,0.3,0.1h5c0.1,0,0.2,0,0.3-0.1
	c0.1-0.1,0.1-0.2,0.1-0.3V73.8z M571.8,64.2c0,0.1,0,0.2,0.1,0.3c0.1,0.1,0.2,0.1,0.3,0.1h2.4c0.1,0,0.2,0,0.3-0.1
	c0.1-0.1,0.1-0.2,0.1-0.3v-2.1c0-0.2-0.1-0.4-0.4-0.4h-2.4c-0.1,0-0.2,0-0.3,0.1c-0.1,0.1-0.1,0.2-0.1,0.3V64.2z"/>
<path id="Fullscreen_grey" fill="#646463" d="M581.4,13.2c0.3-0.3,0.6-0.4,0.8-0.3c0.2,0.1,0.3,0.4,0.3,0.8v6.2
	c0,0.3-0.1,0.5-0.3,0.7c-0.2,0.2-0.4,0.3-0.7,0.3h-6.2c-0.4,0-0.7-0.1-0.8-0.3c-0.1-0.2,0-0.5,0.3-0.8l2.2-2.2l-4.4-4.4l-4.4,4.4
	l2.1,2.1c0.3,0.3,0.4,0.6,0.3,0.8c-0.1,0.2-0.4,0.3-0.8,0.3h-6.2c-0.3,0-0.5-0.1-0.7-0.3c-0.2-0.2-0.3-0.4-0.3-0.7v-6.2
	c0-0.4,0.1-0.7,0.3-0.8c0.2-0.1,0.5,0,0.8,0.3l2.1,2.1l4.4-4.4l-4.4-4.4l-2.1,2.1c-0.3,0.3-0.6,0.4-0.8,0.3s-0.3-0.3-0.3-0.8V2
	c0-0.3,0.1-0.5,0.3-0.7c0.2-0.2,0.5-0.3,0.7-0.3h6.2c0.4,0,0.7,0.1,0.8,0.3c0.1,0.2,0,0.5-0.3,0.8l-2.1,2.1l4.4,4.4l4.3-4.3
	l-2.1-2.1c-0.3-0.3-0.4-0.6-0.3-0.8c0.1-0.2,0.4-0.3,0.8-0.3h6.2c0.3,0,0.5,0.1,0.7,0.3c0.2,0.2,0.3,0.5,0.3,0.7v6.2
	c0,0.4-0.1,0.7-0.3,0.8c-0.2,0.1-0.5,0-0.8-0.3l-2.1-2.1l-4.3,4.3l4.4,4.4L581.4,13.2L581.4,13.2z"/>
<g id="Pfeil_weiß_rechts_2_" filter="url(#AI_Schatten_1)">
	<path fill="#FFFFFF" d="M451,36.9c0.5,0.5,0.7,1,0.7,1.6c0,0.6-0.2,1.1-0.7,1.6l-15.8,15.8c-0.5,0.5-1,0.7-1.6,0.7
		c-0.6,0-1.1-0.2-1.6-0.7l-2.4-2.4c-0.5-0.5-0.7-1-0.7-1.6c0-0.6,0.2-1.1,0.7-1.6l12-12l-12-11.8c-0.5-0.5-0.7-1-0.7-1.6
		c0-0.6,0.2-1.1,0.7-1.6L432,21c0.5-0.5,1-0.7,1.6-0.7c0.6,0,1.1,0.2,1.6,0.7L451,36.9L451,36.9z"/>
</g>
<g filter="url(#AI_Schatten_1)">
	<path fill="#FFFFFF" d="M146.7,40.2c-0.5-0.5-0.7-1-0.7-1.6c0-0.6,0.2-1.1,0.7-1.6l15.8-15.9c0.5-0.5,1-0.7,1.6-0.7
		c0.6,0,1.1,0.2,1.6,0.7l2.4,2.4c0.5,0.5,0.7,1,0.7,1.6c0,0.6-0.2,1.1-0.7,1.6l-12,12l12,11.8c0.5,0.5,0.7,1,0.7,1.6
		c0,0.6-0.2,1.1-0.7,1.6l-2.4,2.4c-0.5,0.5-1,0.7-1.6,0.7c-0.6,0-1.1-0.2-1.6-0.7L146.7,40.2L146.7,40.2z"/>
</g>
<g>
	<g filter="url(#AI_Schatten_1)">
		<path fill="#2E5394" d="M5.1,202.3c-0.9-0.9-1.4-1.9-1.4-3.1c0-1.2,0.5-2.2,1.4-3.1l31.4-31.5c0.9-0.9,2-1.4,3.2-1.4
			c1.2,0,2.3,0.4,3.2,1.4l4.7,4.7c0.9,0.9,1.4,2,1.4,3.2c0,1.2-0.5,2.3-1.4,3.1l-23.7,23.8l23.7,23.4c0.9,0.9,1.4,1.9,1.4,3.1
			c0,1.2-0.5,2.2-1.4,3.1l-4.7,4.8c-0.9,0.9-2,1.4-3.2,1.4c-1.2,0-2.3-0.4-3.2-1.4L5.1,202.3L5.1,202.3z"/>
	</g>
	<g id="Pfeil_weiß_rechts_5_" filter="url(#AI_Schatten_1)">
		<path fill="#2E5394" d="M341.5,196.3c0.9,0.9,1.4,2,1.4,3.2c0,1.2-0.5,2.3-1.4,3.2l-31.4,31.4c-0.9,0.9-2,1.4-3.2,1.4
			c-1.2,0-2.2-0.4-3.2-1.4l-4.7-4.7c-0.9-0.9-1.4-2-1.4-3.2c0-1.2,0.4-2.2,1.4-3.2l23.8-23.7l-23.8-23.5c-0.9-0.9-1.4-1.9-1.4-3.1
			c0-1.2,0.4-2.2,1.4-3.1l4.7-4.8c0.9-0.9,2-1.4,3.2-1.4c1.2,0,2.3,0.4,3.1,1.4L341.5,196.3L341.5,196.3z"/>
	</g>
	<g id="Pfeil_weiß_rechts_4_" filter="url(#AI_Schatten_1)">
		<path fill="#2E5394" d="M451,197.9c0.5,0.5,0.7,1,0.7,1.6c0,0.6-0.2,1.1-0.7,1.6l-15.8,15.8c-0.5,0.5-1,0.7-1.6,0.7
			c-0.6,0-1.1-0.2-1.6-0.7l-2.4-2.4c-0.5-0.5-0.7-1-0.7-1.6c0-0.6,0.2-1.1,0.7-1.6l12-12l-12-11.8c-0.5-0.5-0.7-1-0.7-1.6
			c0-0.6,0.2-1.1,0.7-1.6l2.4-2.4c0.5-0.5,1-0.7,1.6-0.7c0.6,0,1.1,0.2,1.6,0.7L451,197.9L451,197.9z"/>
	</g>
	<g filter="url(#AI_Schatten_1)">
		<path fill="#2E5394" d="M146.7,201.2c-0.5-0.5-0.7-1-0.7-1.6c0-0.6,0.2-1.1,0.7-1.6l15.8-15.9c0.5-0.5,1-0.7,1.6-0.7
			c0.6,0,1.1,0.2,1.6,0.7l2.4,2.4c0.5,0.5,0.7,1,0.7,1.6c0,0.6-0.2,1.1-0.7,1.6l-12,12l12,11.8c0.5,0.5,0.7,1,0.7,1.6
			c0,0.6-0.2,1.1-0.7,1.6l-2.4,2.4c-0.5,0.5-1,0.7-1.6,0.7c-0.6,0-1.1-0.2-1.6-0.7L146.7,201.2L146.7,201.2z"/>
	</g>
</g>
</svg>
